<svg xmlns="http://www.w3.org/2000/svg" xmlns:xlink="http://www.w3.org/1999/xlink" width="24" height="24" viewBox="0 0 24 24">
  <defs>
    <clipPath id="clip-zatu_24X24">
      <rect width="24" height="24"/>
    </clipPath>
  </defs>
  <g id="zatu_24X24" clip-path="url(#clip-zatu_24X24)">
    <g id="Group_22614" data-name="Group 22614" transform="translate(1 2)">
      <g id="Group_9684" data-name="Group 9684" transform="translate(0 0)">
        <path id="Path_36185" data-name="Path 36185" d="M618.052,69.139c.252-1.386.447-2.786.821-4.15a1.611,1.611,0,0,1,2.285-1.008,18.83,18.83,0,0,1,2.54,1.685c.929.723,1.86,1.444,2.746,2.22a1.276,1.276,0,0,1,.016,2.061,4.961,4.961,0,0,1-1.851,1.028c-1.526.49-3,1.127-4.5,1.679a1.7,1.7,0,0,1-2.335-1.853C617.855,70.245,617.959,69.693,618.052,69.139Z" transform="translate(-611.064 -58.222)" fill="#ff4600"/>
        <path id="Path_36186" data-name="Path 36186" d="M575.061,11.7a12.107,12.107,0,0,1,3.54,1.178,11.359,11.359,0,0,1,5,5,9.172,9.172,0,0,1,1.016,4.553,10.544,10.544,0,0,1-.63,3.129,12.8,12.8,0,0,1-4.354,5.851.81.81,0,0,1-.593.168.5.5,0,0,1-.463-.306c-.08-.2.044-.329.183-.432a12.54,12.54,0,0,0,1.559-1.3,11.271,11.271,0,0,0,2.542-3.988,10.117,10.117,0,0,0,.628-4.393,8.545,8.545,0,0,0-2.948-5.735,11.658,11.658,0,0,0-4.152-2.492,9.05,9.05,0,0,0-2.5-.522,10.36,10.36,0,0,0-5.123.9,11.517,11.517,0,0,0-4.547,3.556,8.811,8.811,0,0,0-1.1,2.282,3.592,3.592,0,0,1-.233.517.377.377,0,0,1-.4.234.46.46,0,0,1-.426-.347,1.265,1.265,0,0,1,.055-.757,9.738,9.738,0,0,1,2.178-3.434,12.737,12.737,0,0,1,4.094-2.853,11.618,11.618,0,0,1,4.073-.978A13.015,13.015,0,0,1,575.061,11.7Z" transform="translate(-562.023 -11.511)" fill="#ff4600"/>
      </g>
    </g>
  </g>
</svg>
